<?xml version="1.0" encoding="UTF-8" standalone="no"?>
<!-- Created with Inkscape (http://www.inkscape.org/) -->

<svg
   id="svg5"
   version="1.1"
   viewBox="0 0 134.57812 133.43555"
   height="133.43555"
   width="134.57812"
   xml:space="preserve"
   xmlns="http://www.w3.org/2000/svg"
   xmlns:svg="http://www.w3.org/2000/svg"><defs
     id="defs2" /><g
     id="layer8"
     transform="translate(-1044.3496,-459.63489)"><rect
       style="opacity:1;fill:#ffffff;fill-opacity:1;stroke-width:0.545333"
       id="rect2525"
       width="120.5002"
       height="47.37471"
       x="1051.3885"
       y="503.91644" /><path
       id="path32872"
       style="font-size:261.675px;font-family:Tuffy;-inkscape-font-specification:'Tuffy, Normal';display:inline;opacity:1;fill:#0f0f0f;fill-opacity:1;stroke:none;stroke-width:0.552758;stroke-dasharray:none;stroke-opacity:1"
       d="m 1111.6387,459.63477 a 67.289177,66.717476 0 0 0 -67.2891,66.71875 67.289177,66.717476 0 0 0 67.2891,66.71679 67.289177,66.717476 0 0 0 67.289,-66.71679 67.289177,66.717476 0 0 0 -67.289,-66.71875 z m 48.8554,52.55273 h 3.7422 v 28.79297 h -3.7422 z m -60.3496,0.62695 c 6.2944,0.0379 11.5298,1.04015 12.5078,7.92774 0.24,1.96726 -0.4604,5.03456 -2.1386,6.49804 -1.6782,1.46349 -3.0571,2.33509 -7.3731,2.94727 l 10.8672,11.44922 c -5.2405,-0.0287 -4.6962,0.21227 -6.4551,-1.61524 -0.5099,-0.51884 -7.8031,-8.12622 -12.2558,-12.78125 l 7.1211,-0.041 c 2.9363,0 6.5605,-1.83634 6.5605,-5.51367 -0.2304,-5.5164 -4.7697,-5.78702 -10.3867,-5.58789 l -6.959,-0.0117 v 25.55078 h -3.7461 v -28.79297 h 3.7207 5.7832 c 0.9331,-0.0196 1.8547,-0.0347 2.7539,-0.0293 z m -33.6797,0.0156 h 15.5704 c 0,0 -0.3917,1.03256 -0.7422,1.69922 -0.5361,1.01949 -1.4942,1.55332 -2.2305,1.55468 -3.6561,0.007 -8.8236,0.023 -12.2988,0 -2.9477,-0.16129 -5.7716,0.53977 -6.0059,4.20508 -0.098,4.64287 4.3267,3.88036 7.2832,4.62696 3.4134,0.60858 8.6226,0.69592 11.5957,2.55468 2.58,1.56595 3.0538,4.29648 3.0723,5.81055 0,5.53136 -3.6784,8.34375 -10.0801,8.34375 -4.9473,0 -14.1793,-0.0331 -15.5762,0 0,0 0.3339,-0.86869 0.9043,-1.93359 0.3615,-0.67483 1.0016,-1.42579 2.6504,-1.42579 3.8316,0 8.858,-0.0329 12.5469,0 3.3628,0 5.919,-1.69302 5.8691,-4.73828 -0.063,-2.87117 -1.9817,-3.62035 -3.4609,-3.94922 -2.4078,-0.72105 -11.6816,-1.25606 -14.9082,-2.80078 -2.1037,-0.94522 -3.6543,-3.1502 -3.6543,-6.66015 0.01,-2.06571 1.0749,-4.88367 3.3438,-6.10547 2.2688,-1.23439 2.7549,-1.18164 6.121,-1.18164 z"
       transform="translate(-5.9418841e-6,1.2605132e-4)" /><path
       d="m 854.11523,251.33163 11.77549,11.47347 c -22.96529,26.52659 -58.39926,30.46542 -79.57303,30.46542 -15.11661,0 -37.6227,-5.26796 -61.60799,-22.19295 -17.93444,-15.02778 -29.49471,-33.36171 -34.17164,-55.94401 -1.44559,-7.09482 -1.7973,-14.18718 -1.7973,-21.10896 0,-17.99662 4.33679,-34.56563 13.01038,-49.70702 8.67359,-15.22791 21.13172,-26.97148 36.09791,-35.79675 14.96619,-8.91179 36.17238,-13.386638 49.88818,-13.386638 18.39965,0 43.02305,3.343333 63.20151,19.711128 15.61849,13.04984 32.47394,32.1562 32.56065,72.6359 -5.08211,36.7146 -19.69715,49.4658 -36.46472,50.97724 -16.66208,-0.48412 -22.72092,-10.08624 -24.64917,-12.55922 -6.84906,9.92766 -17.75108,15.36243 -35.83696,15.37143 -10.37398,-0.0817 -21.78915,-0.85538 -36.06586,-12.81767 -11.83119,-11.90611 -13.58147,-25.16065 -14.15288,-33.7171 0,-12.11311 5.3954,-25.78852 14.19683,-34.12555 8.57421,-8.12179 18.93342,-13.71588 36.15469,-13.65273 30.30055,0 47.52164,18.6066 47.33407,42.83208 -0.0539,5.10566 -0.28385,17.14173 1.2738,21.86213 1.57081,4.76025 5.88778,7.24445 10.22457,7.24445 4.76197,0 10.76839,-3.42549 14.45547,-11.82945 2.87215,-6.66444 3.84844,-12.98337 4.75945,-20.5383 -0.0175,-12.33263 -2.52032,-26.45933 -8.64386,-36.35395 -11.20202,-20.09731 -21.78254,-26.99758 -38.81051,-33.56064 -9.09877,-3.46089 -20.75697,-4.80064 -30.53602,-4.80064 -21.73262,1.41559 -42.86017,10.7608 -57.33265,25.58224 -7.14296,7.52743 -12.54755,16.19256 -16.79931,26.40218 -4.16672,10.20963 -5.14565,20.11143 -5.14565,31.09975 0,5.62395 0.26306,11.24789 1.45356,16.87183 3.91161,18.6888 12.95266,33.1901 27.66374,45.73583 15.72448,12.58392 29.32069,16.84212 49.61309,19.18278 26.17501,1.55264 50.60799,-8.07636 67.92416,-25.35628 z m -98.03088,-57.70044 c -0.40271,20.91111 16.05892,27.56347 28.54284,28.2643 21.24714,0.44706 30.86339,-7.76705 31.21211,-28.15239 0,-15.59357 -7.22888,-26.59464 -30.2577,-26.94798 -13.80678,0.73371 -28.70699,8.79998 -29.49725,26.83607 z"
       id="path9712-5-7-5"
       style="font-size:261.675px;font-family:Tuffy;-inkscape-font-specification:'Tuffy, Normal';opacity:1;fill:#526992;fill-opacity:1;stroke-width:1.31713;stroke-dasharray:none"
       transform="matrix(0.16553701,0,0,0.16525833,1005.3242,495.51024)" /></g></svg>
